<svg width="64" height="42" viewBox="0 0 64 42" fill="none" xmlns="http://www.w3.org/2000/svg">
<g style="mix-blend-mode:difference">
<rect x="0.231689" y="18.9269" width="48.6693" height="31.6737" rx="15.8368" fill="#E7FE54"/>
</g>
<circle cx="14.9097" cy="31.2874" r="2.31758" fill="black"/>
<path d="M23.0213 35.9225C23.0213 37.6292 21.6378 39.0127 19.9312 39.0127C18.2246 39.0127 16.8411 37.6292 16.8411 35.9225" stroke="black" stroke-width="2"/>
<circle cx="24.1801" cy="31.2874" r="2.31758" fill="black"/>
<g style="mix-blend-mode:difference">
<path d="M40.4637 17.7682C40.4637 7.95507 48.4188 0 58.2319 0C68.045 0 76 7.95507 76 17.7682V50.6006H40.4637V17.7682Z" fill="#E7FE54"/>
</g>
<circle cx="49.3477" cy="11.2017" r="2.31758" fill="black"/>
<circle cx="58.2319" cy="11.2017" r="2.31758" fill="black"/>
<path d="M58.4357 18.7339C58.4357 20.6597 56.8744 22.2209 54.9486 22.2209C53.0227 22.2209 51.4615 20.6597 51.4615 18.7339L51.4615 18.7231L58.4357 18.7231L58.4357 18.7339Z" stroke="black" stroke-width="5"/>
</svg>
